<svg xmlns="http://www.w3.org/2000/svg" xmlns:xlink="http://www.w3.org/1999/xlink" width="1920" height="12872" viewBox="0 0 1920 12872">
  <defs>
    <linearGradient id="linear-gradient" x1="0.5" x2="0.5" y2="1" gradientUnits="objectBoundingBox">
      <stop offset="0" stop-color="#fdca72"/>
      <stop offset="1" stop-color="#ec6d69"/>
    </linearGradient>
    <clipPath id="clip-background">
      <rect width="1920" height="12872"/>
    </clipPath>
  </defs>
  <g id="background" clip-path="url(#clip-background)">
    <rect width="1920" height="12872" fill="#001222"/>
    <g id="Group_361" data-name="Group 361" transform="translate(4564.779 9091) rotate(180)">
      <path id="Polygon_2" data-name="Polygon 2" d="M2199.039,185.419a360,360,0,0,1,454.922,0l1415.1,1153.545C4331.552,1552.933,4180.251,1978,3841.6,1978H1011.4c-338.648,0-489.947-425.067-227.461-639.037Z" transform="matrix(-0.087, -0.996, 0.996, -0.087, 1091.637, 5598.464)" fill="url(#linear-gradient)"/>
      <path id="Polygon_2-2" data-name="Polygon 2" d="M2199.039,185.419a360,360,0,0,1,454.922,0l1415.1,1153.545C4331.552,1552.933,4180.251,1978,3841.6,1978H1011.4c-338.648,0-489.947-425.067-227.461-639.037Z" transform="matrix(-0.087, -0.996, 0.996, -0.087, 1091.637, 5598.464)" fill="#ec6d69" opacity="0.5"/>
    </g>
    <g id="Group_367" data-name="Group 367" transform="translate(-2644 1571)">
      <path id="Polygon_2-3" data-name="Polygon 2" d="M2199.039,185.419a360,360,0,0,1,454.922,0l1415.1,1153.545C4331.552,1552.933,4180.251,1978,3841.6,1978H1011.4c-338.648,0-489.947-425.067-227.461-639.037Z" transform="matrix(-0.087, -0.996, 0.996, -0.087, 1091.637, 5598.464)" fill="url(#linear-gradient)"/>
      <path id="Polygon_2-4" data-name="Polygon 2" d="M2199.039,185.419a360,360,0,0,1,454.922,0l1415.1,1153.545C4331.552,1552.933,4180.251,1978,3841.6,1978H1011.4c-338.648,0-489.947-425.067-227.461-639.037Z" transform="matrix(-0.087, -0.996, 0.996, -0.087, 1091.637, 5598.464)" fill="#ec6d69" opacity="0.5"/>
    </g>
    <g id="Group_368" data-name="Group 368" transform="translate(2099.061 10353.203) rotate(169)">
      <path id="Polygon_2-5" data-name="Polygon 2" d="M2199.039,185.419a360,360,0,0,1,454.922,0l1415.1,1153.545C4331.552,1552.933,4180.251,1978,3841.6,1978H1011.4c-338.648,0-489.947-425.067-227.461-639.037Z" transform="matrix(-0.087, -0.996, 0.996, -0.087, 1091.637, 5598.464)" fill="url(#linear-gradient)"/>
      <path id="Polygon_2-6" data-name="Polygon 2" d="M2199.039,185.419a360,360,0,0,1,454.922,0l1415.1,1153.545C4331.552,1552.933,4180.251,1978,3841.6,1978H1011.4c-338.648,0-489.947-425.067-227.461-639.037Z" transform="matrix(-0.087, -0.996, 0.996, -0.087, 1091.637, 5598.464)" fill="#ec6d69" opacity="0.5"/>
    </g>
  </g>
</svg>
